<svg xmlns="http://www.w3.org/2000/svg" viewBox="0 0 1248 320">
  <rect width="1248" height="320" fill="white"/>
  <g fill="none" stroke-linecap="round" stroke-linejoin="round">
    <path d="M506 124h178" stroke="#d0d5d8" stroke-width="2"/>
    <path d="M618 115l38 178M662 115l38 178" stroke="#c9c9c9" stroke-width="2"/>
    <path d="M625 148h43M631 177h43M638 206h43M644 235h43M650 264h43" stroke="#c9c9c9" stroke-width="2"/>
  </g>
  <g>
    <rect x="247" y="46" width="139" height="253" rx="6" fill="#fff" stroke="#afb6bc"/>
    <path d="M247 265h139v28a6 6 0 0 1-6 6H253a6 6 0 0 1-6-6z" fill="#f4f4f4"/>
    <path d="M264 53h10M264 57h10M264 60h10" stroke="#b2b5b7" stroke-width="1.2"/>
    <circle cx="316" cy="53" r="1.2" fill="#b2b5b7"/><circle cx="316" cy="57" r="1.2" fill="#b2b5b7"/><circle cx="316" cy="60" r="1.2" fill="#b2b5b7"/>
    <rect x="363" y="54" width="6" height="6" fill="none" stroke="#b2b5b7" stroke-width="2"/>
    <rect x="267" y="92" width="99" height="55" rx="3" fill="#ceead6"/>
    <path d="M301 111h32v4h-32zM305 115h24l-2 22h-20z" fill="none" stroke="#1e8e3e" stroke-width="2"/>
    <circle cx="316" cy="126" r="6" fill="none" stroke="#1e8e3e" stroke-width="2"/><path d="m313 126 2 2 4-5" stroke="#1e8e3e" stroke-width="2" fill="none"/>
    <circle cx="285" cy="172" r="12" fill="#ededed"/><circle cx="318" cy="172" r="12" fill="#ededed"/><circle cx="350" cy="172" r="12" fill="#ededed"/>
    <rect x="270" y="203" width="94" height="11" rx="2" fill="#ededed"/><rect x="270" y="228" width="94" height="11" rx="2" fill="#ededed"/>
    <circle cx="316" cy="282" r="5" fill="none" stroke="#c6cbd0" stroke-width="2"/>
  </g>
  <g>
    <rect x="753" y="46" width="315" height="253" rx="6" fill="#fff" stroke="#c2c8ce"/>
    <path d="M753 60h315v-9a5 5 0 0 0-5-5H758a5 5 0 0 0-5 5z" fill="#f4f4f4"/>
    <circle cx="761" cy="54" r="3" fill="#ea4335"/><circle cx="771" cy="54" r="3" fill="#fbbc04"/><circle cx="780" cy="54" r="3" fill="#34a853"/>
    <rect x="815" y="66" width="222" height="11" rx="6" fill="#f1f1f1"/>
    <rect x="786" y="132" width="62" height="62" rx="2" fill="#f1f1f1"/>
    <rect x="876" y="132" width="62" height="62" rx="2" fill="#e8f0fe"/>
    <rect x="963" y="132" width="62" height="62" rx="2" fill="#f1f1f1"/>
    <path d="M890 175h35M909 151v10a1 1 0 0 1-1 1h-5a13 13 0 0 0-13 13v2h35v-26zM899 162v4M904 161v5" stroke="#1a73e8" stroke-width="2" fill="none"/>
    <g fill="#ececec"><rect x="786" y="224" width="62" height="11" rx="4"/><rect x="786" y="205" width="62" height="11" rx="4"/><rect x="876" y="224" width="62" height="11" rx="4"/><rect x="876" y="205" width="62" height="11" rx="4"/><rect x="963" y="224" width="62" height="11" rx="4"/><rect x="963" y="205" width="62" height="11" rx="4"/></g>
  </g>
  <g>
    <rect x="542" y="30" width="126" height="80" rx="4" fill="#f9f9f9" stroke="#ced6db"/>
    <rect x="551" y="42" width="54" height="54" rx="2" fill="#fad2cf"/>
    <path d="M576 67h-7l-3-3h-2l2 5-2 5h2l3-3h7l-2 12h2l7-12h7a3 3 0 1 0 0-5h-7l-7-12h-2z" fill="none" stroke="#d93025" stroke-width="2"/>
    <path d="M613 43h33M613 49h24M653 43l3 3 3-3" stroke="#b2b5b7"/>
    <rect x="613" y="54" width="24" height="4" rx="2" fill="none" stroke="#b2b5b7"/>
    <circle cx="618" cy="69" r="5" fill="none" stroke="#cbd2d8"/><path d="m616 69 2 2 3-4" stroke="#cbd2d8" fill="none"/>
  </g>
  <path d="M68 260h58v10H68z" fill="#4285f4"/>
  <path d="m429 35 12 12-12 12-12-12z" fill="#ea4335"/>
  <path d="M418 274h-14l-7 12 7 13h14l8-13z" fill="#fbbc04"/>
  <path d="m968 269 22 22-22 22-22-22z" fill="#188038"/>
  <path d="M82 72H94l6 10-6 10H82l-6-10zM1149 50a9 9 0 1 1 0 18 9 9 0 0 1 0-18" fill="#e2e2e2"/>
  <g>
    <path d="M199 196l-5 90h17l8-90zM234 196l5 90h-16l-9-90z" fill="#bfc7cf"/>
    <path d="M198 160c0-8 5-12 14-12h20c8 3 11 8 12 16l-10 9v23h-35z" fill="#207f3b"/>
    <path d="M226 135c0 7-6 12-13 12s-12-5-12-12 5-12 12-12 13 5 13 12" fill="#ebb493"/>
    <path d="M201 128c3-8 12-10 20-6-5 1-7 5-7 9-4-1-8-1-13-3z" fill="#000"/>
    <path d="m237 151 10 13" stroke="#207f3b" stroke-width="8" stroke-linecap="round"/>
    <path d="M121 104s10-12 14-17a10 10 0 0 0 0-12c-3-4-1-10-5-14s-10-3-12 1-5 7-3 11-1 6-3 10-1 13 4 19zM129 176c0-7 0-12 3-16s6-3 9-5 4-5 7-5 4 1 7 0 5-3 8 1 3 6 8 6 6 2 4 6-4 8-12 9-16 1-16 1" fill="#d8d8d8"/>
    <path d="M122 191v-87M122 184l42-44M114 161l8 8" stroke="#80868b" stroke-width="1"/>
    <path d="M112 191h32l-7 40h-18z" fill="#ededed"/>
  </g>
  <g>
    <path d="M452 298h46" stroke="#d8d8d8"/>
    <path d="M467 240l6 58M462 240v58M457 298l6-58" stroke="#abb1b7" stroke-width="2"/>
    <rect x="449" y="238" width="27" height="4" rx="1" fill="#abb1b7"/>
    <path d="M452 160c0-7 5-12 14-12h20c8 1 12 5 14 11l15 41-25 6-4-16-9 85h-29l9-37-16-14c-5-5-5-12-2-18z" fill="#ffc303"/>
    <path d="M470 145c0 8-5 13-12 13s-13-5-13-13 6-13 13-13 12 5 12 13" fill="#ab5545"/>
    <path d="M445 137c-5-10 8-16 18-7 4 4 8 4 11 9-10-2-19-1-29-2z" fill="#3a2321"/>
    <path d="M474 176h31l-8 35h-33z" fill="#34a853" stroke="#0c5921"/>
    <path d="M463 213l21 15 13 70h-21l-9-30-20 30h-20l18-53z" fill="#f1f3f4"/>
    <path d="M548 280c-9-13-20-3-24-1-7 3-10 2-17 0 5 8 13 14 25 14 10 0 16-5 16-13z" fill="#bfc7cf"/>
  </g>
  <g>
    <path d="M672 84l-18 26 8 118h20l2-96h8c11 0 20-8 21-19l4-41h-38z" fill="#d2e3fc"/>
    <path d="M693 214l-1 31 14 1 1-32zM681 285h-20c2-6 8-8 12-12h9z" fill="#f9ab00"/>
    <path d="M666 87c-2 10 6 20 18 20h31l-17 36c-3 7-10 12-18 13l-23 3-2-45z" fill="#d2e3fc"/>
    <path d="M645 104l32 11" stroke="#ea4335" stroke-width="20" stroke-linecap="round"/>
    <path d="M653 79c0 9-7 16-16 16s-16-7-16-16 7-16 16-16 16 7 16 16" fill="#ffc6b0"/>
    <path d="M622 64c4-14 24-18 35-3 13 1 18 11 15 22-5 17-2 34 7 50l-14-1-9-46c-10 5-23 2-29-5-7 0-12-8-5-17z" fill="#33022c"/>
  </g>
  <g>
    <path d="M1107 213v-20s0-8 10-8M1144 213v-20s0-8 10-8" stroke="#94989b" stroke-width="2"/>
    <rect x="1118" y="183" width="9" height="4" rx="1" fill="#5f6368"/><rect x="1154" y="183" width="9" height="4" rx="1" fill="#9aa0a6"/>
    <circle cx="1102" cy="266" r="32" fill="none" stroke="#94989b" stroke-width="2"/><circle cx="1144" cy="266" r="32" fill="none" stroke="#94989b" stroke-width="2"/><circle cx="1102" cy="266" r="5" fill="#f1f3f4"/><circle cx="1144" cy="266" r="5" fill="#f1f3f4"/>
    <path d="M1070 225h36v18h-36z" fill="#f2e4c0"/><path d="M1069 289v-46M1049 291l9-48h11M1107 243h-38v-25c0-3 4-6 8-6h30z" fill="none" stroke="#94989b" stroke-width="2"/>
    <path d="M1098 180h42v63h-42z" fill="#4285f4"/>
    <path d="M1083 208c6-21 11-32 22-30 12 3 14 15 15 28z" fill="#4285f4"/>
    <path d="M1111 176c0 7-5 12-12 12s-12-5-12-12 5-12 12-12 12 5 12 12" fill="#ab5545"/>
    <path d="M1089 168c3-11 17-13 24-2-8-2-13 0-15 6-4 0-7-1-9-4z" fill="#33022c"/>
    <path d="M1093 286h-20c2-5 8-7 12-10h9zM1110 286h-20c2-5 8-7 12-10h9z" fill="#ea4335"/>
  </g>
</svg>
